#!OML:ASF H:\Terrain\Patient Classification 1\PLAYGROUND\JustinFriday\JustinFriday.ASF
:FULLY-SPECIFIED
:DEGREES
220
root 11.9651 15.7876 23.5005 165.916 -0.474251 -176.137
lowerback 16.0215 0.471459 6.07775
upperback 2.70047 1.31217 3.7226
thorax -6.02696 0.294517 0.275598
lowerneck -0.493555 -3.50576 -7.92421
upperneck -20.1341 -5.46451 9.31044
head -5.46968 -3.42551 4.58031
rclavicle -9.39258e-015 6.36111e-015
rhumerus -61.1619 -19.4713 -63.5462
rradius 13.0008
rwrist 12.514
rhand -9.6349 -31.9299
rfingers 7.12502
rthumb 16.3352 -61.2619
lclavicle -9.39258e-015 6.36111e-015
lhumerus -66.1534 25.1265 56.7947
lradius 19.9182
lwrist -12.3604
lhand -17.3205 -0.743466
lfingers 7.12502
lthumb 8.92611 29.0477
rfemur -6.46248 -5.81244 23.4809
rtibia 70.1312
rfoot -32.711 -30.8269
rtoes -1.83799
lfemur -15.8704 11.3485 -10.0225
ltibia 67.1509
lfoot -37.217 -4.15096
ltoes -28.4694
221
root 11.9585 15.8614 23.4528 166.218 -0.707196 -176.355
lowerback 15.9019 0.552094 5.7639
upperback 2.7643 1.35641 3.66634
thorax -5.8993 0.329487 0.381873
lowerneck -1.4527 -3.59985 -8.32946
upperneck -19.9364 -5.52683 9.89011
head -5.20465 -3.4776 4.79545
rclavicle -2.50469e-014 -5.00937e-014
rhumerus -62.1927 -18.2361 -65.5003
rradius 13.6547
rwrist 9.5475
rhand -8.56008 -30.966
rfingers 7.12502
rthumb 17.3699 -60.2099
lclavicle -2.50469e-014 -5.00937e-014
lhumerus -67.1587 24.5121 57.3553
lradius 19.8298
lwrist -11.3155
lhand -16.6485 -0.766372
lfingers 7.12502
lthumb 9.57449 28.9961
rfemur -5.85507 -6.07816 23.0677
rtibia 68.8249
rfoot -33.5224 -29.899
rtoes 0.396889
lfemur -15.2323 11.0124 -10.5377
ltibia 65.6918
lfoot -36.8642 -3.34081
ltoes -28.2791
222
root 11.9508 15.9447 23.3845 166.197 -1.11869 -177.618
lowerback 15.8965 0.696623 4.37125
upperback 2.82348 1.33733 3.34957
thorax -5.86614 0.366331 0.828954
lowerneck -0.625834 -3.59839 -7.48169
upperneck -21.3875 -5.79828 9.0189
head -5.84133 -3.67405 4.47997
rclavicle -2.96935e-015 -3.65764e-014
rhumerus -63.3951 -17.0405 -67.1779
rradius 14.3284
rwrist 6.99318
rhand -7.30779 -31.0035
rfingers 7.12502
rthumb 18.5748 -60.1367
lclavicle -2.96935e-015 -3.65764e-014
lhumerus -68.352 23.476 58.3577
lradius 19.985
lwrist -10.2128
lhand -16.5682 -1.07027
lfingers 7.12502
lthumb 9.65199 28.6886
rfemur -4.79339 -6.32153 21.3289
rtibia 67.5724
rfoot -34.1428 -28.9437
rtoes 2.03484
lfemur -13.894 10.4864 -12.2858
ltibia 63.9761
lfoot -36.4825 -2.62415
ltoes -27.8754
223
root 11.9411 16.0318 23.3269 166.208 -1.29938 -178.328
lowerback 16.0431 0.748239 3.58185
upperback 2.77895 1.30062 3.18294
thorax -6.01212 0.37186 1.10301
lowerneck -0.494656 -3.55249 -7.19365
upperneck -21.7845 -5.83513 8.66255
head -6.01207 -3.70678 4.3436
rclavicle 1.61264e-014 3.10104e-014
rhumerus -64.6016 -16.1166 -68.1735
rradius 14.7728
rwrist 5.34044
rhand -6.32951 -31.0305
rfingers 7.12502
rthumb 19.5156 -60.0711
lclavicle 1.61264e-014 3.10104e-014
lhumerus -69.6079 22.3517 59.6909
lradius 20.2744
lwrist -8.83714
lhand -16.7037 -1.37634
lfingers 7.12502
lthumb 9.5212 28.3885
rfemur -3.91514 -6.34662 20.3386
rtibia 66.3548
rfoot -34.2556 -28.3972
rtoes 2.76202
lfemur -12.6712 10.1334 -13.3408
ltibia 62.2779
lfoot -36.0828 -2.11675
ltoes -27.7726
224
root 11.9314 16.118 23.2787 166.517 -1.60262 -178.274
lowerback 16.0098 0.713425 3.54441
upperback 2.569 1.28405 3.13964
thorax -6.21917 0.373732 1.08158
lowerneck -0.350125 -3.52442 -6.69988
upperneck -22.0341 -5.85887 8.31259
head -6.14459 -3.73856 4.16706
rclavicle 3.57812e-015 3.33958e-014
rhumerus -65.9615 -15.5501 -68.8917
rradius 15.2281
rwrist 4.03386
rhand -5.41432 -29.8454
rfingers 7.12502
rthumb 20.3953 -58.7943
lclavicle 3.57812e-015 3.33958e-014
lhumerus -70.5959 20.9333 61.2581
lradius 20.528
lwrist -7.45877
lhand -16.5826 -2.17242
lfingers 7.12502
lthumb 9.63812 27.5871
rfemur -3.50445 -6.63878 20.2795
rtibia 65.2168
rfoot -33.9757 -28.1948
rtoes 3.039
lfemur -12.0496 9.54342 -13.6027
ltibia 60.7353
lfoot -35.6547 -2.33969
ltoes -26.7216
225
root 11.9203 16.1927 23.2348 167.071 -1.34745 -177.776
lowerback 15.5937 0.818742 3.90556
upperback 2.62855 1.45373 3.31274
thorax -5.92096 0.448835 1.02895
lowerneck -1.22993 -3.51071 -6.64014
upperneck -22.0862 -5.90076 8.25486
head -6.01389 -3.78784 4.11522
rclavicle -1.56294e-014 -1.51076e-014
rhumerus -66.4297 -14.9229 -70.0357
rradius 15.6831
rwrist 2.77181
rhand -4.30541 -29.4425
rfingers 7.12502
rthumb 21.4607 -58.2737
lclavicle -1.56294e-014 -1.51076e-014
lhumerus -71.0016 20.0539 63.0992
lradius 20.9194
lwrist -6.55029
lhand -16.6122 -2.61834
lfingers 7.12502
lthumb 9.60957 27.1425
rfemur -3.48775 -6.41338 20.9889
rtibia 64.1046
rfoot -33.2503 -28.2868
rtoes 2.95831
lfemur -11.792 9.20534 -13.2814
ltibia 59.5079
lfoot -35.2549 -2.55608
ltoes -25.211
226
root 11.9001 16.2679 23.2015 168.06 -1.02276 -177.644
lowerback 14.7063 0.917768 4.05756
upperback 2.63382 1.5697 3.39265
thorax -5.42622 0.516092 1.01033
lowerneck -2.27002 -3.50582 -7.30252
upperneck -21.9841 -5.87192 8.77828
head -5.767 -3.78764 4.35508
rclavicle 1.45237e-014 2.3059e-014
rhumerus -66.7041 -14.2388 -70.9533
rradius 16.0754
rwrist 2.17592
rhand -3.45405 -29.7764
rfingers 7.12502
rthumb 22.2781 -58.5122
lclavicle 1.45237e-014 2.3059e-014
lhumerus -71.4055 19.5244 64.8324
lradius 21.4579
lwrist -5.85661
lhand -16.8012 -2.54125
lfingers 7.12502
lthumb 9.42713 27.2279
rfemur -4.09291 -5.87022 21.3909
rtibia 63.0897
rfoot -32.2708 -28.477
rtoes 2.84891
lfemur -12.1198 8.90201 -13.5007
ltibia 58.49
lfoot -34.8213 -2.34405
ltoes -23.7
227
root 11.89 16.3424 23.1654 168.776 -0.493958 -175.959
lowerback 14.126 0.925044 5.67224
upperback 2.54506 1.76449 3.90304
thorax -5.15934 0.569381 0.615677
lowerneck -2.73292 -3.51684 -7.83963
upperneck -21.9957 -5.84993 9.25322
head -5.65873 -3.78496 4.5826
rclavicle 7.51033e-015 2.38542e-015
rhumerus -67.2471 -13.5823 -71.6255
rradius 16.5352
rwrist 1.92324
rhand -2.79134 -29.4133
rfingers 7.12502
rthumb 22.9142 -58.0717
lclavicle 7.51033e-015 2.38542e-015
lhumerus -72.0467 18.9316 66.2303
lradius 22.0195
lwrist -5.36849
lhand -16.9095 -3.11436
lfingers 7.12502
lthumb 9.32265 26.6595
rfemur -4.36592 -5.45096 23.5148
rtibia 61.9457
rfoot -31.2562 -28.9054
rtoes 2.54533
lfemur -12.2955 8.62661 -11.7854
ltibia 57.7144
lfoot -34.5986 -2.35337
ltoes -21.2364
228
root 11.8795 16.4147 23.1308 169.516 -0.0719516 -174.413
lowerback 13.6683 0.973661 7.10905
upperback 2.39018 1.97981 4.37111
thorax -5.02521 0.632258 0.278692
lowerneck -2.91274 -3.52302 -7.90673
upperneck -22.339 -5.9208 9.2855
head -5.72956 -3.84413 4.61824
rclavicle 7.07549e-015 2.54444e-014
rhumerus -67.6896 -13.0176 -72.1812
rradius 16.9225
rwrist 1.76155
rhand -2.23566 -28.9133
rfingers 7.12502
rthumb 23.4473 -57.5046
lclavicle 7.07549e-015 2.54444e-014
lhumerus -72.712 18.3928 67.4209
lradius 22.6671
lwrist -5.02096
lhand -16.9199 -3.92227
lfingers 7.12502
lthumb 9.31266 25.852
rfemur -4.70211 -5.32306 25.2951
rtibia 60.9418
rfoot -30.2725 -28.9729
rtoes 2.6467
lfemur -12.4814 8.2419 -10.2576
ltibia 56.8721
lfoot -33.8444 -2.43368
ltoes -18.8392
229
root 11.8657 16.4838 23.0926 170.145 0.158845 -173.115
lowerback 13.2901 0.988654 8.39365
upperback 2.27333 2.11659 4.68897
thorax -4.89128 0.660545 -0.113499
lowerneck -3.13812 -3.58973 -7.645
upperneck -22.6933 -6.11484 9.09084
head -5.80651 -3.97559 4.52764
rclavicle -1.98909e-014 -7.07673e-014
rhumerus -68.056 -12.717 -72.2977
rradius 17.217
rwrist 2.61763
rhand -0.96321 -28.2548
rfingers 7.12502
rthumb 24.6675 -56.6849
lclavicle -1.98909e-014 -7.07673e-014
lhumerus -73.27 17.9487 68.2464
lradius 23.3643
lwrist -4.66564
lhand -16.4599 -3.72355
lfingers 7.12502
lthumb 9.75643 26.0305
rfemur -4.93272 -5.2067 26.7503
rtibia 60.0177
rfoot -29.5034 -28.8613
rtoes 3.27384
lfemur -12.4963 7.62827 -9.05839
ltibia 55.9129
lfoot -34.799 0.865779
ltoes -26.1725
230
root 11.862 16.5718 23.0427 170.927 0.0117585 -173.701
lowerback 12.7276 1.13135 7.66319
upperback 2.03338 2.2321 4.41241
thorax -4.85323 0.762586 -0.015325
lowerneck -3.35128 -3.75667 -7.25177
upperneck -22.5807 -6.35307 8.94667
head -5.7337 -4.10972 4.40639
rclavicle 2.3233e-015 -2.46493e-014
rhumerus -68.6893 -12.3327 -72.7573
rradius 17.7753
rwrist 3.22121
rhand 0.272396 -27.666
rfingers 7.12502
rthumb 25.8513 -55.929
lclavicle 2.3233e-015 -2.46493e-014
lhumerus -73.8879 17.3406 68.5763
lradius 23.9722
lwrist -4.41282
lhand -16.7162 -4.39946
lfingers 7.12502
lthumb 9.50917 25.366
rfemur -5.48406 -5.06025 26.0715
rtibia 59.4278
rfoot -28.6164 -28.6559
rtoes 3.20439
lfemur -12.423 6.72989 -10.1307
ltibia 54.5363
lfoot -34.4806 2.6086
ltoes -27.4881
